<?xml version="1.0" encoding="utf-8"?>
<!-- Generator: Adobe Illustrator 22.0.0, SVG Export Plug-In . SVG Version: 6.00 Build 0)  -->
<svg version="1.1" id="图层_1" xmlns="http://www.w3.org/2000/svg" xmlns:xlink="http://www.w3.org/1999/xlink" x="0px" y="0px"
	 viewBox="0 0 200 200" style="enable-background:new 0 0 200 200;" xml:space="preserve">
<style type="text/css">
	.st0{fill:#4B4B4B;}
</style>
<path class="st0" d="M130.6,56.2c-1.2,1.3-2.3,2.6-3.5,3.8c-2.3,2.4-4.6,4.8-6.9,7.2c-3.5,3.6-7,7.2-10.5,10.8
	c-0.1,0.1-0.2,0.2-0.2,0.2c-3.1,3.3-6.2,6.6-9.4,9.9c-1.6-1.5-3.2-2.9-4.7-4.4c-2.8-2.6-5.5-5.3-8.2-8c-2.5-2.4-5-4.9-7.6-7.3
	C76,65,72.5,61.5,69,58.1c-0.3-0.3-0.6-0.6-0.9-0.9l-11,12.2c0.3,0.3,0.7,0.5,1,0.8c10,10,20,20,30,30c0.6,0.6,0.8,1.2,0.8,2
	c0,13.4,0,26.8,0,40.1v1.4h22v-1.4c0-13.7,0-27.4,0-41.1c0-1,0.3-1.7,1-2.4c9.6-9.5,19.1-19.1,28.7-28.6c0.3-0.3,0.7-0.6,1.1-0.8
	C137.9,65,134.3,60.6,130.6,56.2z"/>
</svg>
