<?xml version="1.0" encoding="utf-8"?>
<!-- Generator: Adobe Illustrator 22.0.0, SVG Export Plug-In . SVG Version: 6.00 Build 0)  -->
<svg version="1.1" id="图层_1" xmlns="http://www.w3.org/2000/svg" xmlns:xlink="http://www.w3.org/1999/xlink" x="0px" y="0px"
	 viewBox="0 0 32 32" style="enable-background:new 0 0 32 32;" xml:space="preserve">
<style type="text/css">
	.st0{fill:#4B4B4B;}
</style>
<path class="st0" d="M26.5,11.1L26.5,11.1c0-0.6-0.4-1-1-1h-5.7c-0.4,0-0.7-0.3-0.7-0.8l0-4.3V5c0-0.5-0.4-1-1-1l-4.4,0
	c-0.1,0-0.3,0-0.4,0.1c-0.4,0.1-0.6,0.5-0.6,0.9l0,4.4c0,0.4-0.3,0.8-0.8,0.8H6.4c-0.2,0-0.4,0-0.5,0.1c-0.3,0.2-0.4,0.5-0.4,0.8
	l0,2.1c0,0.7,0.5,1.2,1.2,1.3h18.7c0.7,0,1.2-0.5,1.2-1.2c0,0,0,0,0,0L26.5,11.1z M25.4,15.6H6.7c-0.7,0-1.2,0.5-1.2,1.2l0,0l0,10.2
	c0,0.1,0,0.3,0.1,0.4C5.7,27.8,6,28,6.4,28h2.6c0.5,0,1-0.4,1-1v-0.5c0-0.5,0.4-1,0.9-1c0.5,0,1,0.4,1,0.9c0,0,0,0,0,0.1v0.5
	c0,0.5,0.4,1,1,1h1.2c0.5,0,1-0.4,1-1v-0.5c0-0.5,0.4-1,0.9-1c0.5,0,1,0.4,1,0.9c0,0,0,0,0,0.1v0.5c0,0.5,0.4,1,1,1l2.1,0V28l0-1.4
	c0-0.5,0.4-1,0.9-1c0.5,0,1,0.4,1,0.9c0,0,0,0,0,0.1l0,1.4V28h3.6c0.4,0,0.7-0.2,0.8-0.5c0,0,0,0,0,0c0,0,0,0,0-0.1c0,0,0,0,0,0
	c0,0,0,0,0-0.1l0,0c0,0,0,0,0-0.1v0c0,0,0,0,0-0.1l0-10.3C26.6,16.2,26.1,15.6,25.4,15.6L25.4,15.6z"/>
</svg>
