<?xml version="1.0" encoding="utf-8"?>
<!-- Generator: Adobe Illustrator 22.0.0, SVG Export Plug-In . SVG Version: 6.00 Build 0)  -->
<svg version="1.1" id="图层_1" xmlns="http://www.w3.org/2000/svg" xmlns:xlink="http://www.w3.org/1999/xlink" x="0px" y="0px"
	 viewBox="0 0 200 200" style="enable-background:new 0 0 200 200;" xml:space="preserve">
<style type="text/css">
	.st0{fill:#4B4B4B;}
</style>
<path class="st0" d="M51.1,166.4L99,118.4l47.9,47.9c4.8,4.8,12.7,4.8,17.5,0c4.8-4.8,4.8-12.7,0-17.5L116.6,101l47.9-47.9
	c4.7-5.4,4.4-12.7-0.3-17.3c-4.6-4.6-12-4.8-16.8-0.6L99,83.7L51.1,35.6c-4.8-4.8-12.7-4.8-17.5,0s-4.8,12.7,0,17.5l0,0L81.5,101
	L33.6,149c-4.8,4.8-4.8,12.7,0,17.5C38.4,171.2,46.3,171.2,51.1,166.4L51.1,166.4z"/>
</svg>
