<?xml version="1.0" encoding="utf-8"?>
<!-- Generator: Adobe Illustrator 22.0.0, SVG Export Plug-In . SVG Version: 6.00 Build 0)  -->
<svg version="1.1" id="图层_1" xmlns="http://www.w3.org/2000/svg" xmlns:xlink="http://www.w3.org/1999/xlink" x="0px" y="0px"
	 viewBox="0 0 200 200" style="enable-background:new 0 0 200 200;" xml:space="preserve">
<style type="text/css">
	.st0{fill:#4B4B4B;}
</style>
<path class="st0" d="M158,81.4l-48.1,47.4c-3.9,3.9-10.3,3.8-14.2-0.1c-0.2-0.2-0.4-0.4-0.6-0.7l-16-19.6l-22.8,24.2
	c-3.8,4-10.1,4.2-14.1,0.4c0,0,0,0,0,0c-4-3.8-4.2-10.1-0.4-14.1c0,0,0,0,0,0l30.6-32.4c3.8-4,10.1-4.2,14.2-0.4
	c0.3,0.3,0.6,0.6,0.9,0.9l16.3,19.9L144,67.1c3.9-3.9,10.3-3.8,14.1,0.1C162,71.2,162,77.5,158,81.4L158,81.4z"/>
</svg>
