<?xml version="1.0" encoding="utf-8"?>
<!-- Generator: Adobe Illustrator 22.0.0, SVG Export Plug-In . SVG Version: 6.00 Build 0)  -->
<svg version="1.1" id="图层_1" xmlns="http://www.w3.org/2000/svg" xmlns:xlink="http://www.w3.org/1999/xlink" x="0px" y="0px"
	 viewBox="0 0 200 200" style="enable-background:new 0 0 200 200;" xml:space="preserve">
<style type="text/css">
	.st0{fill:#4B4B4B;}
</style>
<g>
	<rect x="18.3" y="127" class="st0" width="163.3" height="21.8"/>
	<path class="st0" d="M42.8,79.4c0-3.8,0.3-6.5,0.8-8.1c0.5-1.6,1.4-2.9,2.5-3.7c1.2-0.9,2.5-1.3,4-1.3c1.2,0,2.2,0.3,2.9,0.8
		c0.7,0.5,1.2,1.4,1.6,2.5c0.3,1.1,0.5,3.6,0.5,7.4v21.5h9.5V79.6c0-3.7,0.3-6.4,0.8-8.1c0.5-1.7,1.4-3,2.5-3.9
		c1.2-0.9,2.4-1.3,3.8-1.3c1.8,0,3.2,0.7,4.1,2.2c0.7,1.1,1,3.6,1,7.5v22.4h9.5v-25c0-3.7-0.3-6.4-1-8.1c-0.9-2.3-2.3-4-4.1-5.1
		c-1.8-1.2-4.1-1.8-6.7-1.8c-2.1,0-4,0.5-5.9,1.5c-1.8,1-3.5,2.6-5.1,4.7c-1.1-2.1-2.5-3.7-4.2-4.7c-1.7-1-3.7-1.5-6-1.5
		c-4.3,0-8.1,2.1-11.2,6.2v-5.3h-8.8v39.2h9.5V79.4z"/>
	<path class="st0" d="M106.5,75.4c-3.3,0.7-5.8,1.5-7.6,2.4c-1.8,0.9-3.1,2.2-4.1,4c-1,1.7-1.5,3.7-1.5,5.9c0,3.3,1.1,6.1,3.2,8.3
		c2.1,2.2,5.1,3.3,8.8,3.3c2.1,0,4.1-0.4,5.9-1.3c1.9-0.9,3.6-2.2,5.2-3.9c0.1,0.2,0.2,0.6,0.3,1.2c0.4,1.4,0.7,2.4,0.9,3.1h9.4
		c-0.8-1.9-1.4-3.6-1.7-5.3c-0.3-1.6-0.5-4.2-0.5-7.6l0.1-12.1c0-4.5-0.4-7.6-1.3-9.3c-0.8-1.7-2.3-3.1-4.4-4.2
		c-2.1-1.1-5.3-1.6-9.5-1.6c-4.7,0-8.2,0.9-10.6,2.7c-2.4,1.8-4.1,4.6-5,8.4l8.7,1.7c0.6-1.8,1.4-3.1,2.3-3.8c1-0.7,2.3-1.1,4-1.1
		c2.5,0,4.2,0.4,5.1,1.3s1.4,2.3,1.4,4.3v1C114.1,73.7,111,74.5,106.5,75.4z M115.8,81.7c0,2.5-0.1,4.2-0.4,5.1
		c-0.4,1.4-1.1,2.5-2.3,3.4c-1.6,1.2-3.2,1.8-4.9,1.8c-1.5,0-2.8-0.5-3.8-1.6c-1-1.1-1.5-2.3-1.5-3.8c0-1.5,0.6-2.7,1.9-3.7
		c0.8-0.6,2.5-1.2,5.2-1.8c2.7-0.6,4.6-1.1,5.8-1.6V81.7z"/>
	<polygon class="st0" points="141.2,98.4 148.6,86.3 155.9,98.4 167.6,98.4 154.3,77.8 166.5,59.3 155.3,59.3 148.6,70 142.2,59.3 
		130.5,59.3 143,78.3 130,98.4 	"/>
</g>
</svg>
