<?xml version="1.0" standalone="no"?><!DOCTYPE svg PUBLIC "-//W3C//DTD SVG 1.1//EN" "http://www.w3.org/Graphics/SVG/1.1/DTD/svg11.dtd"><svg t="1570674455259" class="icon" viewBox="0 0 1024 1024" version="1.1" xmlns="http://www.w3.org/2000/svg" p-id="3531" xmlns:xlink="http://www.w3.org/1999/xlink" width="32" height="32"><defs><style type="text/css"></style></defs><path d="M875.52 558.08l68.096-42.496c10.752-6.656 16.384-19.456 13.312-32.256l-33.28-146.432c-3.072-12.288-13.312-21.504-26.112-23.04l-79.872-8.704c-7.68-1.024-15.36-5.12-19.968-11.264l-13.312-16.896c-5.12-6.144-7.168-14.336-6.144-22.016l9.216-79.872c1.536-12.8-5.12-25.088-16.896-30.72L634.88 79.36c-11.264-5.632-25.088-3.072-34.304 5.632l-56.832 56.832c-5.632 5.632-13.312 8.704-20.992 8.704h-21.504c-8.192 0-15.36-3.072-20.992-8.704l-56.832-56.832c-9.216-9.216-22.528-11.264-34.304-5.632l-135.68 65.024c-11.264 5.632-18.432 17.92-16.896 30.208l9.216 80.384c1.024 7.68-1.536 15.872-6.144 22.016l-13.312 16.896c-5.12 6.144-12.288 10.24-19.968 11.264l-79.872 8.704c-12.8 1.536-23.04 10.752-26.112 23.04L66.56 483.328c-3.072 12.288 2.56 25.088 13.312 32.256l68.608 42.496c6.656 4.096 11.776 10.752 13.312 18.944l4.608 20.992c1.536 7.68 0.512 15.872-4.096 22.528l-43.008 68.096c-6.656 10.752-6.144 24.576 2.048 34.816l93.696 117.248c8.192 9.728 21.504 13.824 33.28 9.728l75.776-26.624c7.68-2.56 15.872-2.048 23.04 1.024l19.456 9.216c7.168 3.584 12.8 9.728 15.36 17.408l26.624 75.776c4.096 12.288 15.36 19.968 28.16 19.968h150.016c12.8 0 24.064-8.192 28.16-19.968l26.624-75.776c2.56-7.68 8.192-13.824 15.36-17.408l19.456-9.216c7.168-3.584 15.36-4.096 23.04-1.024l75.776 26.624c12.288 4.096 25.6 0.512 33.28-9.728l93.696-117.248c8.192-9.728 8.704-24.064 2.048-34.816l-43.008-68.096c-4.096-6.656-5.632-14.848-4.096-22.528l4.608-20.992c2.56-7.68 7.168-14.336 13.824-18.944z m-339.456 93.696c-78.848 13.312-153.6-39.936-166.912-118.784-2.56-15.872-2.56-32.256 0-48.64 9.728-59.904 57.856-108.544 117.76-118.272 78.848-13.824 153.6 39.424 167.424 118.272a158.246 158.246 0 0 1 0 49.152c-9.728 59.904-58.368 108.544-118.272 118.272z" p-id="3532" fill="#4B4B4B"></path></svg>