<?xml version="1.0" encoding="utf-8"?>
<!-- Generator: Adobe Illustrator 22.0.0, SVG Export Plug-In . SVG Version: 6.00 Build 0)  -->
<svg version="1.1" id="图层_1" xmlns="http://www.w3.org/2000/svg" xmlns:xlink="http://www.w3.org/1999/xlink" x="0px" y="0px"
	 viewBox="0 0 200 200" style="enable-background:new 0 0 200 200;" xml:space="preserve">
<style type="text/css">
	.st0{fill:#4B4B4B;}
</style>
<path class="st0" d="M67.2,100c0,18.1,14.7,32.8,32.8,32.8s32.8-14.7,32.8-32.8S118.1,67.2,100,67.2S67.2,81.9,67.2,100z"/>
<path class="st0" d="M100,175c-41.4,0-75-33.6-75-75s33.6-75,75-75s75,33.6,75,75S141.4,175,100,175z M100,156
	c31,0,56.1-25.1,56.1-56c0-31-25.1-56.1-56-56.1l0,0C69,44,44,69.1,44,100C44,131,69.1,156,100,156z"/>
</svg>
