<?xml version="1.0" encoding="utf-8"?>
<!-- Generator: Adobe Illustrator 22.0.0, SVG Export Plug-In . SVG Version: 6.00 Build 0)  -->
<svg version="1.1" id="图层_1" xmlns="http://www.w3.org/2000/svg" xmlns:xlink="http://www.w3.org/1999/xlink" x="0px" y="0px"
	 viewBox="0 0 200 200" style="enable-background:new 0 0 200 200;" xml:space="preserve">
<style type="text/css">
	.st0{fill:#4B4B4B;}
</style>
<path class="st0" d="M66.4,158c1.9,11.6-4,23-14.4,28.4c-10.5,5.3-23.2,3.3-31.5-4.9c-8.3-8.3-10.3-21-5-31.4
	c5.4-10.4,16.9-16.2,28.4-14.4c2.9-3.1,5.6-6.1,7.9-9c-13.6-4.6-28.7-1.2-39,9c-14.7,14.7-14.8,38.5-0.1,53.2c0,0,0.1,0.1,0.1,0.1
	c14.8,14.7,38.7,14.7,53.5,0c10.2-10.2,13.7-25.2,9-38.8C72.6,152.5,69.5,155.1,66.4,158L66.4,158z M149.5,125.3
	c2.3,2.9,4.9,5.9,7.8,9c11.6-1.9,23.1,4,28.4,14.4c5.3,10.4,3.3,23.1-5,31.4c-8.3,8.3-21,10.3-31.5,5c-10.5-5.3-16.3-16.7-14.5-28.3
	c-2.9-2.7-6-5.3-9.1-7.8c-4.6,13.6-1,28.5,9.1,38.6c14.8,14.7,38.7,14.7,53.5,0c14.7-14.7,14.7-38.5,0.1-53.2c0,0,0,0-0.1-0.1
	C178.2,124.3,163.1,120.8,149.5,125.3L149.5,125.3z M135.4,44.5c-1.9-11.6,4-23,14.4-28.3c10.5-5.3,23.2-3.3,31.5,4.9
	c8.3,8.3,10.3,21,5,31.4c-5.4,10.4-16.8,16.3-28.4,14.4c-3,3.2-5.6,6.2-7.8,9c13.6,4.6,28.7,1.1,38.9-9
	c14.7-14.7,14.7-38.5,0.1-53.2c0,0-0.1-0.1-0.1-0.1c-14.8-14.7-38.7-14.7-53.5,0c-10.2,10.1-13.7,25.1-9.1,38.7
	C129.1,50.1,132.1,47.5,135.4,44.5L135.4,44.5z M50.3,73.2c-2.6-3.1-5.3-6-8.1-8.9C30.6,66.2,19.1,60.4,13.7,50
	c-5.4-10.4-3.4-23.2,4.9-31.4c8.3-8.3,21.1-10.3,31.6-4.9C60.6,19,66.4,30.5,64.5,42.1c3.1,2.9,6.1,5.6,9,8
	c4.8-13.7,1.3-28.9-8.9-39.1C49.7-3.7,25.9-3.7,11.1,11C-3.7,25.7-3.7,49.5,11,64.2c0,0,0,0,0.1,0.1C21.3,74.5,36.6,78,50.3,73.2
	L50.3,73.2z M101.2,89.9c-5.6-2.3-12,0.4-14.4,6c-2.3,5.6,0.4,12,6,14.4c1.3,0.5,2.7,0.8,4.2,0.8c4.9,2,10.5,0.3,13.4-4.1
	c6.1,0,11-5,11-11c0-6.1-5-11-11-11C106.7,85,103.3,86.8,101.2,89.9L101.2,89.9z M154.1,165.1c0.6,0.7,2.2,2.4,2.5,2.7l0.2,0.1
	c0.1,0.1,0.2,0.2,0.3,0.3c3.8,3.4,9.2,3.6,12.3,0.5c3-3,2.9-7.9,0.1-11.6c-0.8-0.8-1.6-1.6-2.4-2.4c-0.3-0.3-0.6-0.5-0.7-0.6
	c-8.6-8-36.9-35.3-36.3-51.3c0-0.7,0-3.5,0-4.3c-0.1-16.1,27.8-43,36.3-50.9l0.7-0.6c0.8-0.7,1.6-1.5,2.4-2.4
	c2.8-3.7,2.8-8.6-0.1-11.6c-3.2-3.1-8.6-2.9-12.3,0.5c-0.1,0.1-0.2,0.2-0.3,0.2l-0.2,0.2c-0.3,0.3-1.9,2-2.5,2.7
	c-8.4,9-33.4,34.3-49.2,35.5c-1.2,0.1-5.5,0.1-6.5,0C82.1,71.6,55.7,44.5,47.9,36c-0.9-1.1-1.9-2.1-3-3.1c-3.7-2.8-8.7-2.8-11.6,0.1
	c-3.2,3.1-2.9,8.5,0.5,12.3c0.1,0.1,0.2,0.2,0.2,0.3l0.2,0.1c0.3,0.3,2.1,1.9,2.7,2.5c8.8,8.2,33.1,32,35.5,47.8
	c0.2,1.7,0.2,8.6-0.2,10.8c-3.4,15.8-26.7,38.6-35.2,46.6c-0.7,0.6-2.4,2.2-2.7,2.5l-0.2,0.2c-0.1,0.1-0.2,0.2-0.2,0.3
	c-3.4,3.7-3.6,9.1-0.5,12.3c3,2.9,7.9,2.9,11.6,0.1c0.8-0.8,1.6-1.6,2.4-2.4l0.6-0.7c7.6-8.2,33-34.3,49.3-36.1c1.5-0.2,6.6-0.2,8,0
	C121,131.1,145.7,156.1,154.1,165.1L154.1,165.1z M113.4,113c-4.9,4.9-12.3,6.3-18.7,3.7c-6.4-2.6-10.6-8.9-10.6-15.8
	c0-6.9,4.2-13.2,10.6-15.8c8.8-3.6,18.8,0.5,22.5,9.3c0.8,2.1,1.3,4.3,1.3,6.5C118.4,105.4,116.6,109.8,113.4,113L113.4,113z"/>
</svg>
