<?xml version="1.0" encoding="utf-8"?>
<!-- Generator: Adobe Illustrator 22.0.0, SVG Export Plug-In . SVG Version: 6.00 Build 0)  -->
<svg version="1.1" id="图层_1" xmlns="http://www.w3.org/2000/svg" xmlns:xlink="http://www.w3.org/1999/xlink" x="0px" y="0px"
	 viewBox="0 0 200 200" style="enable-background:new 0 0 200 200;" xml:space="preserve">
<style type="text/css">
	.st0{fill:#4B4B4B;}
</style>
<path class="st0" d="M167.5,100c0,33.5-30.5,67.5-68.1,67.5c-18.1-0.1-35.4-7.4-48.2-20.3l15.4-15.6c8.4,8.4,20,14.1,32.7,14.1
	c25.6,0,46.3-19,46.3-45.8h-18l28.9-29.3l28.9,29v0.3H167.5L167.5,100z M14.4,100H32c0-33.5,30.5-67.5,68.1-67.5
	c18.8,0,35.8,7.9,48.2,20.3l-15.4,15.6c-8.4-8.4-19.9-14.1-32.7-14.1c-25.6,0-46.3,19-46.3,45.8h18l-28.7,28.7L14.4,100z"/>
</svg>
