<?xml version="1.0" standalone="no"?><!DOCTYPE svg PUBLIC "-//W3C//DTD SVG 1.1//EN" "http://www.w3.org/Graphics/SVG/1.1/DTD/svg11.dtd"><svg class="icon" width="200px" height="200.00px" viewBox="0 0 1024 1024" version="1.1" xmlns="http://www.w3.org/2000/svg"><path fill="#1296db" d="M511.873 65.6c7.92 0 15.904-0.643 23.749 0.126 19.983 1.959 40.063 3.65 59.805 7.142 19.254 3.406 38.408 8.019 57.122 13.695 32.339 9.809 62.859 24.161 91.402 42.191a424.815 424.815 0 0 1 45.971 33.54c17.246 14.462 34.059 29.65 49.515 45.985 19.166 20.256 36.102 42.392 51.516 65.845 17.142 26.083 30.581 53.792 41.479 82.779 9.159 24.363 14.991 49.72 19.833 75.324 6.966 36.832 6.897 74.054 5.446 111.153-0.848 21.676-5.407 43.243-8.844 64.772-3.904 24.451-11.313 48.092-20.845 70.781-8.497 20.226-19.067 39.645-29.667 58.9-7.011 12.736-15.28 24.848-23.754 36.69-6.869 9.6-14.737 18.505-22.43 27.489-6.954 8.12-13.932 16.27-21.513 23.789-9.412 9.335-19.234 18.29-29.287 26.935-9.458 8.134-19.194 15.998-29.269 23.349-11.461 8.362-23.099 16.582-35.253 23.875-26.111 15.669-53.703 28.236-82.797 37.43-25.056 7.917-50.329 14.813-76.593 17.338-13.038 1.254-26.07 2.732-39.14 3.46-14.558 0.811-29.225 1.949-43.722 1.027-21.399-1.361-42.889-3.299-63.973-7.056-21.913-3.905-43.686-9.292-64.978-15.804-25.524-7.806-49.665-19.266-72.692-32.889-8.874-5.25-18.099-10.02-26.47-15.984-12.781-9.105-24.997-19.008-37.373-28.675-4.612-3.602-9.198-7.281-13.448-11.294-11.046-10.431-22.374-20.625-32.696-31.744-10.493-11.302-20.355-23.264-29.687-35.549-9.399-12.374-18.769-24.954-26.42-38.427-11.331-19.952-22.363-40.256-31.217-61.376-7.763-18.515-12.981-38.193-18.143-57.671-4.12-15.543-6.698-31.516-9.497-47.38-1.388-7.87-2.191-15.908-2.458-23.897-0.672-20.116-2.032-40.306-0.996-60.357 1.256-24.295 3.893-48.509 8.872-72.509 6.509-31.375 16.243-61.542 28.973-90.854 11.145-25.662 25.66-49.461 41.776-72.134 11.814-16.621 24.716-32.72 38.892-47.346 16.842-17.377 35.038-33.563 53.62-49.102 20.714-17.321 43.076-32.566 67.624-44.091 20.57-9.657 41.06-19.795 62.416-27.382 24.113-8.567 49.084-14.874 74.758-17.351 23.401-2.258 46.82-4.323 70.231-6.473l0.162 1.73z m156.564 222.268c-6.065 6.651-11.779 13.158-17.752 19.418-11.72 12.283-23.548 24.464-35.399 36.621-17.933 18.395-35.923 36.733-53.89 55.095-0.415 0.425-0.844 0.837-1.252 1.268-15.995 16.882-31.989 33.766-47.915 50.577-8.261-7.65-16.306-14.886-24.108-22.374-14.106-13.537-28.063-27.231-42.092-40.848-12.893-12.514-25.829-24.985-38.695-37.527-17.969-17.518-35.89-35.086-53.836-52.628-1.49-1.456-3.017-2.873-4.672-4.447l-56.289 62.479c1.709 1.482 3.445 2.81 4.977 4.341 51.265 51.227 102.484 102.499 153.821 153.653 3.04 3.029 4.307 5.988 4.298 10.31-0.137 68.512-0.097 137.025-0.097 205.537v7.223h112.483v-7.306c0-70.096 0.058-140.193-0.118-210.289-0.013-5.196 1.612-8.725 5.217-12.315 48.967-48.764 97.792-97.669 146.695-146.498 1.64-1.638 3.717-2.839 5.585-4.239-19.456-23.246-38.015-45.418-56.961-68.051z"  /></svg>