<?xml version="1.0" encoding="utf-8"?>
<!-- Generator: Adobe Illustrator 22.0.0, SVG Export Plug-In . SVG Version: 6.00 Build 0)  -->
<svg version="1.1" id="图层_1" xmlns="http://www.w3.org/2000/svg" xmlns:xlink="http://www.w3.org/1999/xlink" x="0px" y="0px"
	 viewBox="0 0 200 200" style="enable-background:new 0 0 200 200;" xml:space="preserve">
<style type="text/css">
	.st0{fill:#F6F6F6;}
</style>
<path class="st0" d="M49,129.4h-8.4c-6,0-10.9,4.9-10.9,10.9c0,6,4.9,10.9,10.9,10.9H49v8.4c0,6,4.9,10.9,10.9,10.9
	c6,0,10.9-4.9,10.9-10.9v-8.4h8.4c6,0,10.9-4.9,10.9-10.9c0-6-4.9-10.9-10.9-10.9h-8.4V121c0-6-4.9-10.9-10.9-10.9
	c-6,0-10.9,4.9-10.9,10.9L49,129.4L49,129.4z M12.5,41.7c0-16.1,13.1-29.2,29.2-29.2h116.7c16.1,0,29.2,13.1,29.2,29.2v116.7
	c0,16.1-13.1,29.2-29.2,29.2H41.7c-16.1,0-29.2-13.1-29.2-29.2V41.7z M27.1,40.5v38.1c0,8.1,6.5,14.6,14.6,14.6h116.7
	c8.1,0,14.6-6.5,14.6-14.6V40.5c0-8.1-6.5-14.6-14.6-14.6H41.7C33.6,26,27.1,32.5,27.1,40.5z M117.8,146.6c3.2,3.2,8.3,3.2,11.4,0
	l1-1c3.2-3.2,3.2-8.3,0-11.4c-3.2-3.2-8.3-3.2-11.4,0l-1,1C114.6,138.3,114.6,143.4,117.8,146.6z M136.3,129.4
	c3.2,3.2,8.3,3.2,11.4,0l1-1c3.2-3.2,3.2-8.3,0-11.4c-3.2-3.2-8.3-3.2-11.4,0l-1,1C133.2,121.2,133.2,126.3,136.3,129.4z
	 M154.9,146.6c3.2,3.2,8.3,3.2,11.4,0l1-1c3.2-3.2,3.2-8.3,0-11.4c-3.2-3.2-8.3-3.2-11.4,0l-1,1
	C151.7,138.3,151.7,143.4,154.9,146.6z M136.3,163.7c3.2,3.2,8.3,3.2,11.4,0l1-1c3.2-3.2,3.2-8.3,0-11.4c-3.2-3.2-8.3-3.2-11.4,0
	l-1,1C133.2,155.4,133.2,160.6,136.3,163.7z"/>
</svg>
