<?xml version="1.0" standalone="no"?><!DOCTYPE svg PUBLIC "-//W3C//DTD SVG 1.1//EN" "http://www.w3.org/Graphics/SVG/1.1/DTD/svg11.dtd"><svg class="icon" width="200px" height="200px" viewBox="0 0 1024 1024" version="1.1" xmlns="http://www.w3.org/2000/svg"><path fill="#1296db" d="M512 51.2a460.8 460.8 0 0 0-460.8 460.8c0 254.5152 206.2848 460.8 460.8 460.8s460.8-206.2848 460.8-460.8a460.8 460.8 0 0 0-460.8-460.8z m297.0624 365.4144l-246.3744 242.6368a51.2512 51.2512 0 0 1-75.52-3.9936l-82.1248-100.1472-116.992 123.8528a51.1488 51.1488 0 0 1-72.3968 2.048 51.2 51.2 0 0 1-2.0992-72.3968l156.928-166.144a51.3024 51.3024 0 0 1 76.9024 2.7648l83.456 101.7344L737.28 343.6544a51.1488 51.1488 0 1 1 71.7824 72.96z"  /></svg>
