<?xml version="1.0" encoding="utf-8"?>
<!-- Generator: Adobe Illustrator 22.0.0, SVG Export Plug-In . SVG Version: 6.00 Build 0)  -->
<svg version="1.1" id="图层_1" xmlns="http://www.w3.org/2000/svg" xmlns:xlink="http://www.w3.org/1999/xlink" x="0px" y="0px"
	 viewBox="0 0 200 200" style="enable-background:new 0 0 200 200;" xml:space="preserve">
<style type="text/css">
	.st0{fill:#d4468e;}
</style>
<path class="st0" d="M58,54.5l15.2-19.8c1.3-1.8,4.2-3.2,6.4-3.2h39.2c2.2,0,5.1,1.4,6.6,3.1L142,54.5h40c4.4,0,8,3.6,8,8v97.9
	c0,4.4-3.6,8-8,8H18.2c-4.4,0-8-3.6-8-8V62.5c0-4.4,3.6-8,8-8H58z M100.1,151.4c22.1,0,40-17.9,40-40s-17.9-40-40-40s-40,17.9-40,40
	S78,151.4,100.1,151.4z M100.1,140.3c15.9,0,28.8-12.9,28.8-28.8S116,82.7,100.1,82.7s-28.8,12.9-28.8,28.8S84.2,140.3,100.1,140.3z
	 M26.2,43.4c-1.1,0-2,0.9-2,2v3.2c0,1.1,0.9,2,2,2h21.2c1.1,0,2-0.9,2-2v-3.2c0-1.1-0.9-2-2-2H26.2z M152.4,65.5v10h10v-10H152.4z"
	/>
</svg>
