<?xml version="1.0" encoding="utf-8"?>
<!-- Generator: Adobe Illustrator 22.0.0, SVG Export Plug-In . SVG Version: 6.00 Build 0)  -->
<svg version="1.1" id="图层_1" xmlns="http://www.w3.org/2000/svg" xmlns:xlink="http://www.w3.org/1999/xlink" x="0px" y="0px"
	 viewBox="0 0 200 200" style="enable-background:new 0 0 200 200;" xml:space="preserve">
<style type="text/css">
	.st0{fill:#1CD028;}
</style>
<path class="st0" d="M139.8,95.8c0.2-5.3-4-8.3-7.7-12.5L98.2,49.5c-5.1-5.3-13.6-5.4-18.9-0.3C74.1,54.3,73.9,62.7,79,68
	c0.1,0.1,0.2,0.2,0.3,0.3L107,96l-27.7,27.7c-5.3,5.1-5.4,13.6-0.3,18.9c5.1,5.3,13.6,5.4,18.9,0.3c0.1-0.1,0.2-0.2,0.3-0.3
	l33.9-33.9C136.5,103.4,140.1,101.3,139.8,95.8L139.8,95.8z"/>
</svg>
