<?xml version="1.0" standalone="no"?><!DOCTYPE svg PUBLIC "-//W3C//DTD SVG 1.1//EN" "http://www.w3.org/Graphics/SVG/1.1/DTD/svg11.dtd"><svg class="icon" width="200px" height="200.00px" viewBox="0 0 1024 1024" version="1.1" xmlns="http://www.w3.org/2000/svg"><path fill="#1296db" d="M0 512a512 512 0 1 0 1024 0A512 512 0 0 0 0 512zM857.673143 512c0 171.373714-156.16 345.819429-348.818286 345.819429a349.037714 349.037714 0 0 1-246.637714-103.716572l78.994286-79.798857c42.934857 42.934857 102.180571 72.118857 167.643428 72.118857 130.925714 0 237.056-97.353143 237.056-234.422857H653.824l148.187429-150.089143 148.041142 148.553143V512h-92.379428zM73.874286 512h90.185143c0-171.373714 156.16-345.819429 348.818285-345.819429 96.329143 0 183.515429 40.594286 246.637715 103.716572l-78.994286 79.798857c-42.861714-42.934857-102.107429-72.118857-167.570286-72.118857-130.925714 0-237.056 97.353143-237.056 234.422857H367.908571L220.891429 659.017143 73.874286 512z" /></svg>