<?xml version="1.0" encoding="utf-8"?>
<!-- Generator: Adobe Illustrator 22.0.0, SVG Export Plug-In . SVG Version: 6.00 Build 0)  -->
<svg version="1.1" id="图层_1" xmlns="http://www.w3.org/2000/svg" xmlns:xlink="http://www.w3.org/1999/xlink" x="0px" y="0px"
	 viewBox="0 0 200 200" style="enable-background:new 0 0 200 200;" xml:space="preserve">
<style type="text/css">
	.st0{fill:#F6F6F6;}
</style>
<path class="st0" d="M100,25c-41.4,0-75,33.6-75,75s33.6,75,75,75c6.9,0,12.5-5.6,12.5-12.5c0-3.3-1.2-6.2-3.3-8.4
	c-2-2.2-3.1-5.1-3.1-8.3c0-6.9,5.6-12.5,12.5-12.5h14.7c23,0,41.7-18.7,41.7-41.7C175,54.8,141.4,25,100,25z M54.2,100
	c-6.9,0-12.5-5.6-12.5-12.5S47.3,75,54.2,75s12.5,5.6,12.5,12.5S61.1,100,54.2,100z M79.2,66.7c-6.9,0-12.5-5.6-12.5-12.5
	s5.6-12.5,12.5-12.5c6.9,0,12.5,5.6,12.5,12.5S86.1,66.7,79.2,66.7z M120.8,66.7c-6.9,0-12.5-5.6-12.5-12.5s5.6-12.5,12.5-12.5
	s12.5,5.6,12.5,12.5S127.8,66.7,120.8,66.7z M145.8,100c-6.9,0-12.5-5.6-12.5-12.5S138.9,75,145.8,75c6.9,0,12.5,5.6,12.5,12.5
	S152.8,100,145.8,100z"/>
</svg>
