<?xml version="1.0" encoding="utf-8"?>
<!-- Generator: Adobe Illustrator 22.0.0, SVG Export Plug-In . SVG Version: 6.00 Build 0)  -->
<svg version="1.1" id="图层_1" xmlns="http://www.w3.org/2000/svg" xmlns:xlink="http://www.w3.org/1999/xlink" x="0px" y="0px"
	 viewBox="0 0 200 200" style="enable-background:new 0 0 200 200;" xml:space="preserve">
<style type="text/css">
	.st0{fill:#F6F6F6;}
</style>
<path class="st0" d="M88,12.6c-47.6,0-75.4,11.8-75.4,26.5v15.9c0,14.6,27.8,26.5,75.4,26.5c47.6,0,80.8-11.9,80.8-26.5V39
	C168.8,24.4,135.6,12.6,88,12.6z M81.3,149.8c-34.2-1.2-54.2-8.6-64.8-18.5c-2.7,2.5-4,5.2-4,8v21.4c0,14.8,29.1,26.7,79,26.7
	c5,0,9.8-0.1,14.6-0.4C93.4,178.3,84.2,165.1,81.3,149.8L81.3,149.8z M93.7,93.7c-1.1,0-2.1,0-3.2,0c-40,0-62.6-7.9-74-18.8
	c-2.7,2.6-4,5.3-4,8.1v21.5c0,13.7,24.6,25,67.1,26.7C79.7,117,85,103.9,93.7,93.7z M137.5,87.6c-27.6,0-49.9,22.4-49.9,49.9
	c0,27.6,22.4,49.9,49.9,49.9s49.9-22.4,49.9-49.9C187.4,109.9,165.1,87.6,137.5,87.6z M106.2,125l31.2,0v-18.7l31.2,31.2l-31.2,31.2
	V150h-31.2L106.2,125L106.2,125z"/>
</svg>
