<?xml version="1.0" encoding="utf-8"?>
<!-- Generator: Adobe Illustrator 22.0.0, SVG Export Plug-In . SVG Version: 6.00 Build 0)  -->
<svg version="1.1" id="图层_1" xmlns="http://www.w3.org/2000/svg" xmlns:xlink="http://www.w3.org/1999/xlink" x="0px" y="0px"
	 viewBox="0 0 200 200" style="enable-background:new 0 0 200 200;" xml:space="preserve">
<style type="text/css">
	.st0{fill:#F6F6F6;}
</style>
<path class="st0" d="M100,49.2C67.4,49.2,37.9,67,16.1,96c-1.8,2.4-1.8,5.7,0,8.1c21.8,29,51.4,46.8,83.9,46.8s62.1-17.8,83.9-46.8
	c1.8-2.4,1.8-5.7,0-8.1C162.1,67,132.6,49.2,100,49.2z M102.3,135.8c-21.6,1.4-39.5-16.5-38.1-38.1c1.1-17.9,15.6-32.3,33.5-33.5
	c21.6-1.4,39.5,16.5,38.1,38.1C134.6,120.2,120.2,134.6,102.3,135.8z M101.3,119.3C89.6,120,80,110.4,80.7,98.7
	c0.6-9.6,8.4-17.4,18-18c11.7-0.7,21.3,8.9,20.5,20.5C118.7,110.9,110.9,118.7,101.3,119.3z"/>
</svg>
