<?xml version="1.0" encoding="utf-8"?>
<!-- Generator: Adobe Illustrator 22.0.0, SVG Export Plug-In . SVG Version: 6.00 Build 0)  -->
<svg version="1.1" id="图层_1" xmlns="http://www.w3.org/2000/svg" xmlns:xlink="http://www.w3.org/1999/xlink" x="0px" y="0px"
	 viewBox="0 0 200 200" style="enable-background:new 0 0 200 200;" xml:space="preserve">
<style type="text/css">
	.st0{fill:#F6F6F6;}
</style>
<path class="st0" d="M65.6,63.5l12.5-16.3c1.1-1.5,3.5-2.6,5.3-2.6h32.3c1.8,0,4.2,1.2,5.4,2.6l13.7,16.4h33c3.6,0,6.6,3,6.6,6.6
	v80.7c0,3.6-3,6.6-6.6,6.6H32.8c-3.6,0-6.6-3-6.6-6.6V70.1c0-3.6,3-6.6,6.6-6.6H65.6z M100.3,143.4c18.2,0,33-14.8,33-33
	s-14.8-33-33-33s-33,14.8-33,33S82.1,143.4,100.3,143.4z M100.3,134.2c13.1,0,23.8-10.6,23.8-23.8s-10.6-23.8-23.8-23.8
	s-23.8,10.6-23.8,23.8S87.2,134.2,100.3,134.2z M39.4,54.3c-0.9,0-1.6,0.7-1.6,1.6v2.6c0,0.9,0.7,1.6,1.6,1.6h17.5
	c0.9,0,1.6-0.7,1.6-1.6V56c0-0.9-0.7-1.6-1.6-1.6H39.4z M143.5,72.5v8.2h8.2v-8.2H143.5z"/>
</svg>
