<?xml version="1.0" encoding="utf-8"?>
<!-- Generator: Adobe Illustrator 22.0.0, SVG Export Plug-In . SVG Version: 6.00 Build 0)  -->
<svg version="1.1" id="图层_1" xmlns="http://www.w3.org/2000/svg" xmlns:xlink="http://www.w3.org/1999/xlink" x="0px" y="0px"
	 viewBox="0 0 200 200" style="enable-background:new 0 0 200 200;" xml:space="preserve">
<style type="text/css">
	.st0{fill:#F6F6F6;}
</style>
<path class="st0" d="M68.2,62.5V50.7c0-2.6,2.1-4.7,4.7-4.7H171c2.6,0,4.7,2.1,4.7,4.7v11.7c0,2.6-2.1,4.7-4.7,4.7H72.9
	C70.3,67.2,68.2,65.1,68.2,62.5z M72.9,114.2H171c2.6,0,4.7-2.1,4.7-4.7V97.7c0-2.6-2.1-4.7-4.7-4.7H72.9c-2.6,0-4.7,2.1-4.7,4.7
	v11.7C68.2,112.1,70.3,114.2,72.9,114.2z M72.9,161.2H171c2.6,0,4.7-2.1,4.7-4.7v-11.7c0-2.6-2.1-4.7-4.7-4.7H72.9
	c-2.6,0-4.7,2.1-4.7,4.7v11.7C68.2,159.1,70.3,161.2,72.9,161.2z M30,70.7h18.8c2.6,0,4.7-2.1,4.7-4.7V47.2c0-2.6-2.1-4.7-4.7-4.7
	H30c-2.6,0.1-4.7,2.1-4.7,4.7V66C25.3,68.6,27.4,70.7,30,70.7z M30,117.7h18.8c2.6,0,4.7-2.1,4.7-4.7V94.2c0-2.6-2.1-4.7-4.7-4.7H30
	c-2.6,0.1-4.7,2.1-4.7,4.7V113C25.3,115.6,27.4,117.7,30,117.7z M30,164.7h18.8c2.6,0,4.7-2.1,4.7-4.7v-18.8c0-2.6-2.1-4.7-4.7-4.7
	H30c-2.6,0-4.7,2.1-4.7,4.7V160C25.3,162.6,27.4,164.7,30,164.7z"/>
</svg>
