<?xml version="1.0" encoding="utf-8"?>
<!-- Generator: Adobe Illustrator 22.0.0, SVG Export Plug-In . SVG Version: 6.00 Build 0)  -->
<svg version="1.1" id="图层_1" xmlns="http://www.w3.org/2000/svg" xmlns:xlink="http://www.w3.org/1999/xlink" x="0px" y="0px"
	 viewBox="0 0 200 200" style="enable-background:new 0 0 200 200;" xml:space="preserve">
<style type="text/css">
	.st0{fill:#F6F6F6;}
</style>
<path class="st0" d="M196.3,72.5c-1.3-5-6.3-7.5-11.3-6.3s-7.5,6.3-6.3,11.3c2.5,7.5,3.8,15,3.8,22.5c0,45-36.2,81.3-81.2,81.3
	S18.8,145,18.8,100S55,18.8,100,18.8c7.5,0,15,1.3,22.5,2.5c5,1.3,10-1.3,11.3-6.2s-1.3-10-6.3-11.3C118.8,1.3,108.8,0,100,0
	C45,0,0,45,0,100s45,100,100,100s100-45,100-100C200,90,198.8,81.3,196.3,72.5z M40,100c0,9,7.3,16.3,16.3,16.3S72.5,109,72.5,100
	s-7.3-16.3-16.2-16.3S40,91,40,100C40,100,40,100,40,100z M83.8,100c0,9,7.3,16.3,16.2,16.3c9,0,16.3-7.3,16.3-16.2c0,0,0,0,0,0
	c0-9-7.3-16.3-16.3-16.3S83.7,91,83.8,100C83.7,100,83.7,100,83.8,100z M127.5,100c0,9,7.3,16.3,16.2,16.3c9,0,16.3-7.3,16.3-16.2
	c0,0,0,0,0,0c0-9-7.3-16.3-16.3-16.3S127.5,91,127.5,100L127.5,100z"/>
</svg>
