<?xml version="1.0" encoding="utf-8"?>
<!-- Generator: Adobe Illustrator 22.0.0, SVG Export Plug-In . SVG Version: 6.00 Build 0)  -->
<svg version="1.1" id="图层_1" xmlns="http://www.w3.org/2000/svg" xmlns:xlink="http://www.w3.org/1999/xlink" x="0px" y="0px"
	 viewBox="0 0 200 200" style="enable-background:new 0 0 200 200;" xml:space="preserve">
<style type="text/css">
	.st0{fill:#F6F6F6;}
</style>
<path class="st0" d="M156.9,33.2h-25.3v-4.5c0-2.5-2.1-4.6-4.6-4.6h-56c-2.5,0-4.6,2.1-4.6,4.6v4.5H43.1c-4.5,0-8.1,4.2-8.1,9.4
	s3.7,9.4,8.1,9.4h113.7c4.5,0,8.1-4.2,8.1-9.4S161.3,33.2,156.9,33.2z M45.6,161c0,8.2,6.7,14.9,14.9,14.9h79.1
	c8.2,0,14.9-6.7,14.9-14.9V62.6H45.6C45.6,62.6,45.6,161,45.6,161z M114.4,81.7c0-4.5,4.2-8.1,9.4-8.1c5.2,0,9.4,3.7,9.4,8.1v73.7
	c0,4.5-4.2,8.1-9.4,8.1c-5.2,0-9.4-3.7-9.4-8.1C114.4,155.4,114.4,81.7,114.4,81.7z M66.9,81.7c0-4.5,4.2-8.1,9.4-8.1
	s9.4,3.7,9.4,8.1v73.7c0,4.5-4.2,8.1-9.4,8.1s-9.4-3.7-9.4-8.1C66.9,155.4,66.9,81.7,66.9,81.7z"/>
</svg>
