<?xml version="1.0" encoding="utf-8"?>
<!-- Generator: Adobe Illustrator 22.0.0, SVG Export Plug-In . SVG Version: 6.00 Build 0)  -->
<svg version="1.1" id="图层_1" xmlns="http://www.w3.org/2000/svg" xmlns:xlink="http://www.w3.org/1999/xlink" x="0px" y="0px"
	 viewBox="0 0 200 200" style="enable-background:new 0 0 200 200;" xml:space="preserve">
<style type="text/css">
	.st0{fill:#F6F6F6;}
</style>
<path class="st0" d="M100,170.3c7.8,0,14-6.3,14-14.1c0-7.8-6.3-14-14-14s-14.1,6.3-14.1,14C86,164,92.3,170.3,100,170.3z
	 M142.9,72.9c0.6-10.9-3.4-21.6-11.1-29.5c-8.3-8.7-19.9-13.6-31.9-13.6c-11.4,0-22.3,4.5-30.3,12.6c-8.1,8-12.6,18.9-12.5,30.3
	c0,6.3,5.1,11.4,11.4,11.4c6.3,0,11.4-5.1,11.4-11.4l0,0c0-11.1,9-20.1,20.1-20.1c5.8,0,11.4,2.4,15.3,6.5c3.4,3.5,5.1,8,4.8,12.6
	c-0.3,6-2.3,9.8-13.6,21.1c-12.5,12.5-17.9,20.3-19,30.8c-0.6,6.3,4,11.9,10.2,12.5c0,0,0,0,0,0l1.1,0c5.9,0,10.8-4.5,11.4-10.3
	c0.4-3.6,3.9-8.4,12.4-16.9C137.5,94,142.2,85.2,142.9,72.9L142.9,72.9z"/>
</svg>
