<?xml version="1.0" encoding="utf-8"?>
<!-- Generator: Adobe Illustrator 22.0.0, SVG Export Plug-In . SVG Version: 6.00 Build 0)  -->
<svg version="1.1" id="图层_1" xmlns="http://www.w3.org/2000/svg" xmlns:xlink="http://www.w3.org/1999/xlink" x="0px" y="0px"
	 viewBox="0 0 200 200" style="enable-background:new 0 0 200 200;" xml:space="preserve">
<style type="text/css">
	.st0{fill:#F6F6F6;}
</style>
<path class="st0" d="M195.9,68.1c5.2,5.2,5.2,13.6,0,18.8s-13.6,5.2-18.8,0c-42.6-42.6-111.7-42.6-154.4,0c-5.2,5.2-13.6,5.2-18.8,0
	s-5.2-13.6,0-18.8c27.9-27.9,60.5-41.2,96.5-41.2C137.3,26.9,168.9,41.1,195.9,68.1z M37.8,102c-5.2,5.2-5.2,13.6,0,18.8
	c5.2,5.2,13.6,5.2,18.8,0c23.9-23.9,62.7-23.9,86.6,0c5.2,5.2,13.6,5.2,18.8,0s5.2-13.6,0-18.8C127.7,67.7,72.1,67.7,37.8,102z
	 M116.8,166c9.4-9.4,9.4-24.5,0-33.9s-24.5-9.4-33.9,0s-9.4,24.5,0,33.9S107.5,175.4,116.8,166z"/>
</svg>
